REM MD5 313505ebc3199e3544b69e0b60b88fc4
FILE "Hoshigami - Shizumiyuku Aoki Daichi (Japan).bin" BINARY
  TRACK 01 MODE2/2352
    INDEX 01 00:00:00
  TRACK 02 AUDIO
    INDEX 00 52:18:72
    INDEX 01 52:20:72
  TRACK 03 AUDIO
    INDEX 00 53:57:15
    INDEX 01 53:59:15
  TRACK 04 AUDIO
    INDEX 00 55:34:06
    INDEX 01 55:36:06
  TRACK 05 AUDIO
    INDEX 00 57:09:44
    INDEX 01 57:11:44
REM LEADOUT 61:09:27
